# xmcd
#
# Track frame offsets:
#	150
#	21316
#	39058
#	55390
#	70186
#	86615
#	101191
#	113597
#	127538
#	143222
#	159597
#	173531
#	190072
#	204162
#	220371
#	236684
#	250181
#	266018
#	280965
#	293770
#	310128
#
# Disc length: 4369 seconds
# Revision: 1
# Processed by: cddbd v1.5.2PL0 Copyright (c) Steve Scherf et al.
# Submitted via: dBpowerAMP V12.0
#
DISCID=25110f15
DTITLE=Various Artist - Country Radio August 2009
DYEAR=2009
DGENRE=Country
TTITLE0=Brad Paisley - Welcome To The Future
TTITLE1=Doc Walker - Coming Home
TTITLE2=Johnny Reid - Dance With Me
TTITLE3=Sara Evans - Feels Just Like A Love Song
TTITLE4=Keith Urban - Only You Can Love Me This Way (Single Remix)
TTITLE5=George Canyon - Let It Out
TTITLE6=Toby Keith - American Ride
TTITLE7=Tim McGraw - It's A Business Doing Pleasure With You
TTITLE8=Crystal Shaw&a - Try
TTITLE9=Gloriana - Wild At Heart
TTITLE10=Willie Mack - A Love Like That
TTITLE11=Last Trailers The - All This Love
TTITLE12=Adam Gregory - Could I Just Be Me
TTITLE13=John Rich - The Good Lord and The Man
TTITLE14=Eli Young Band - Radio Waves
TTITLE15=Craig Morgan - Bonfire
TTITLE16=Aaron Pritchett - Hard To Miss
TTITLE17=Montgomery Gentry - Long Line Of Losers
TTITLE18=Brad Johner - Lookin At You
TTITLE19=Carter Twins - Heart Like Memphis
TTITLE20=Jason Michael Carroll - Hurry Home
EXTD=
EXTT0=
EXTT1=
EXTT2=
EXTT3=
EXTT4=
EXTT5=
EXTT6=
EXTT7=
EXTT8=
EXTT9=
EXTT10=
EXTT11=
EXTT12=
EXTT13=
EXTT14=
EXTT15=
EXTT16=
EXTT17=
EXTT18=
EXTT19=
EXTT20=
PLAYORDER=
